<?xml version="1.0" encoding="UTF-8"?>
<!DOCTYPE svg PUBLIC "-//W3C//DTD SVG 1.1//EN" "http://www.w3.org/Graphics/SVG/1.1/DTD/svg11.dtd">
<!-- Creator: CorelDRAW (Evaluation Version) -->
<svg xmlns="http://www.w3.org/2000/svg" xml:space="preserve" width="0.684067in" height="0.616114in" version="1.1" style="shape-rendering:geometricPrecision; text-rendering:geometricPrecision; image-rendering:optimizeQuality; fill-rule:evenodd; clip-rule:evenodd"
viewBox="0 0 69.93 62.99"
 xmlns:xlink="http://www.w3.org/1999/xlink"
 xmlns:xodm="http://www.corel.com/coreldraw/odm/2003">
 <defs>
   <clipPath id="id0">
    <path d="M13.44 0.03l38.45 0.04c3.15,-0.52 13.35,1.71 13.01,14.32l-1.61 0.01c0.57,-3.96 -1.69,-12.13 -10.53,-12.66l-33.91 0.04c-1.15,0 -3.28,-0.04 -6,-0.03 -5.04,0.03 -10.91,3.53 -11.08,10.7l0.01 37.53c-0.11,3.29 2.01,12.12 13.46,11.12l36.07 0.06c4.03,0.3 11.27,-2.01 11.94,-10.18 0.03,-4.69 -0,-13.98 0.08,-14.06l1.66 -1.5c0.03,3.72 -0.12,10.59 0.03,14.31 0.25,5.99 -3.77,13.13 -12.42,13.15 -1.86,0 -3.9,0.11 -6.32,0.1l-33.98 -0.01c-8.32,-0.16 -12.42,-7.32 -12.24,-13.03l-0.02 -37.44c-0.33,-6.31 4.67,-12.89 13.43,-12.47zm56.49 25.09c-8.98,7.22 -9.28,10.6 -17.11,19.51 4.33,-8.35 8.28,-18.67 10.58,-21.15 2.7,1.43 2.55,1.39 6.53,1.64zm-19.15 7.05c0.77,-3.75 0.48,-10.11 2.44,-15.56 3.59,1.9 7.15,2.01 10.7,1.14 -5.71,5.95 -8.07,14.4 -11.26,20.85 -0.39,0.32 -4.23,7.91 -8.8,10.78 2.35,-4.26 4.38,-4.92 6.92,-17.21zm1.19 -21.15c-1.84,2.64 -3.44,10.88 -3.9,16.88 -0.53,6.93 -1.69,14.86 -9.36,21.67 -3.73,3.61 -23.1,1.72 -33.7,-9.6 20.88,-1.04 24.97,-22.39 22.69,-29.96 6.74,-0.87 14.38,5.5 24.25,1.01z"/>
   </clipPath>
 </defs>
 <g id="Layer_x0020_1">
  <metadata id="CorelCorpID_0Corel-Layer"/>
  <g style="clip-path:url(#id0)">
   <image id="logo-extensys.png" x="-4.81" y="-10.23" width="294.66" height="73.94" xlink:href="Untitled-2_Images/Untitled-2_ImgID1.png"/>
  </g>
 </g>
</svg>
